<svg width="139" height="217" viewBox="0 0 139 217" fill="none" xmlns="http://www.w3.org/2000/svg">
<rect x="109.318" y="61.668" width="119.867" height="121.8" rx="28.0333" transform="rotate(106.855 109.318 61.668)" fill="#1FD068"/>
<path d="M-52.773 83.2624C-56.0858 94.1965 -57.2125 105.676 -56.0888 117.046C-54.965 128.415 -51.6129 139.452 -46.2238 149.526C-40.8346 159.601 -33.514 168.515 -24.6799 175.759C-15.8458 183.004 -5.67118 188.438 5.26299 191.751C16.1972 195.064 27.6768 196.191 39.0464 195.067C50.416 193.943 61.4529 190.591 71.527 185.202C81.6012 179.813 90.5152 172.492 97.7601 163.658C105.005 154.824 110.439 144.649 113.752 133.715L30.4894 108.489L-52.773 83.2624Z" fill="#1FD068"/>
<circle cx="57.0077" cy="94.3022" r="5.8" transform="rotate(16.8555 57.0077 94.3022)" fill="white"/>
<circle cx="65.3339" cy="96.8249" r="5.8" transform="rotate(16.8555 65.3339 96.8249)" fill="white"/>
<circle cx="57.0068" cy="94.3022" r="2.9" transform="rotate(16.8555 57.0068 94.3022)" fill="black"/>
<circle cx="65.3349" cy="96.8249" r="2.9" transform="rotate(16.8555 65.3349 96.8249)" fill="black"/>
<path d="M41.3125 102C41.3125 102 41.179 111.293 55.3402 115.05C69.5015 118.807 73.9922 110.671 73.9922 110.671" stroke="black" stroke-width="2.25403" stroke-linecap="round"/>
</svg>
