<svg width="51" height="69" viewBox="0 0 51 69" fill="none" xmlns="http://www.w3.org/2000/svg">
<rect x="0.755859" y="50.3501" width="50.0741" height="18.1587" rx="9.07937" fill="black"/>
<path d="M1.30624 25.5882C1.30624 28.84 1.94673 32.0599 3.19113 35.0642C4.43553 38.0684 6.25948 40.7981 8.55884 43.0975C10.8582 45.3969 13.5879 47.2208 16.5922 48.4652C19.5964 49.7096 22.8164 50.3501 26.0682 50.3501C29.3199 50.3501 32.5399 49.7096 35.5441 48.4652C38.5484 47.2208 41.2781 45.3969 43.5775 43.0975C45.8768 40.7981 47.7008 38.0684 48.9452 35.0642C50.1896 32.0599 50.8301 28.84 50.8301 25.5882L26.0682 25.5882L1.30624 25.5882Z" fill="black"/>
<path d="M42.0247 25.5878C42.0247 23.4922 41.612 21.4171 40.81 19.4811C40.0081 17.545 38.8326 15.7858 37.3508 14.304C35.869 12.8222 34.1099 11.6468 32.1738 10.8448C30.2377 10.0429 28.1626 9.63013 26.0671 9.63013C23.9715 9.63013 21.8964 10.0429 19.9603 10.8448C18.0242 11.6468 16.2651 12.8222 14.7833 14.304C13.3015 15.7858 12.126 17.545 11.3241 19.4811C10.5221 21.4171 10.1094 23.4922 10.1094 25.5878L26.0671 25.5878L42.0247 25.5878Z" fill="black"/>
<circle cx="24.9633" cy="21.1864" r="1.65079" fill="white"/>
<circle cx="27.4399" cy="21.1864" r="1.65079" fill="white"/>
<circle cx="24.9641" cy="21.1865" r="0.825397" fill="black"/>
<circle cx="27.4387" cy="21.1865" r="0.825397" fill="black"/>
<path d="M17.2637 25.5879C17.2637 25.5879 18.4009 27.7889 25.7928 27.7889C33.1847 27.7889 34.3219 25.5879 34.3219 25.5879" stroke="black" stroke-linecap="round"/>
</svg>
