<svg width="64" height="121" viewBox="0 0 64 121" fill="none" xmlns="http://www.w3.org/2000/svg">
<rect x="7.1543" y="102.349" width="50.0741" height="18.1587" rx="9.07937" fill="#FE5D5C"/>
<path d="M7.15195 77.5872C7.15195 80.839 7.79243 84.0589 9.03683 87.0632C10.2812 90.0674 12.1052 92.7972 14.4045 95.0965C16.7039 97.3959 19.4336 99.2198 22.4379 100.464C25.4421 101.709 28.6621 102.349 31.9139 102.349C35.1656 102.349 38.3856 101.709 41.3898 100.464C44.3941 99.2198 47.1238 97.3959 49.4232 95.0965C51.7225 92.7972 53.5465 90.0674 54.7909 87.0632C56.0353 84.0589 56.6758 80.839 56.6758 77.5872L31.9139 77.5872L7.15195 77.5872Z" fill="#FE5D5C"/>
<path d="M63.8307 72.6348C63.8307 68.4437 63.0052 64.2935 61.4013 60.4214C59.7974 56.5492 57.4465 53.0309 54.4829 50.0673C51.5193 47.1037 48.001 44.7528 44.1288 43.1489C40.2567 41.545 36.1065 40.7195 31.9154 40.7195C27.7242 40.7195 23.574 41.545 19.7019 43.1489C15.8297 44.7528 12.3114 47.1037 9.34779 50.0673C6.38418 53.0309 4.03331 56.5492 2.42941 60.4214C0.825514 64.2935 -3.66405e-07 68.4437 0 72.6348L31.9154 72.6348H63.8307Z" fill="#FE5D5C"/>
<path d="M47.8743 77.5878C47.8743 75.4922 47.4616 73.4171 46.6596 71.4811C45.8577 69.545 44.6823 67.7858 43.2004 66.304C41.7186 64.8222 39.9595 63.6468 38.0234 62.8448C36.0873 62.0429 34.0123 61.6301 31.9167 61.6301C29.8211 61.6301 27.746 62.0429 25.8099 62.8448C23.8738 63.6468 22.1147 64.8222 20.6329 66.304C19.1511 67.7858 17.9756 69.545 17.1737 71.4811C16.3717 73.4171 15.959 75.4922 15.959 77.5878L31.9167 77.5878H47.8743Z" fill="#FE5D5C"/>
<circle cx="31.9162" cy="24.7619" r="24.7619" fill="#FE5D5C"/>
<circle cx="41.8188" cy="17.058" r="1.65079" fill="white"/>
<circle cx="44.2953" cy="17.058" r="1.65079" fill="white"/>
<circle cx="41.8215" cy="17.0581" r="0.825397" fill="black"/>
<circle cx="44.2961" cy="17.0581" r="0.825397" fill="black"/>
<path d="M39 22C39 22 39.6 25 43.5 25C47.4 25 48 22 48 22" stroke="black" stroke-linecap="round"/>
<path d="M39 22H48" stroke="black" stroke-linecap="round"/>
</svg>
