<svg width="50" height="34" viewBox="0 0 50 34" fill="none" xmlns="http://www.w3.org/2000/svg">
<rect y="16.6433" width="50" height="15.95" rx="7.975" fill="black"/>
<path d="M41.3021 16.6436C41.3021 14.4767 40.8803 12.3312 40.061 10.3293C39.2416 8.32741 38.0406 6.50846 36.5266 4.97629C35.0126 3.44413 33.2152 2.22874 31.2371 1.39954C29.259 0.57034 27.1388 0.143555 24.9977 0.143555C22.8566 0.143555 20.7364 0.57034 18.7583 1.39954C16.7802 2.22875 14.9828 3.44413 13.4688 4.97629C11.9548 6.50846 10.7538 8.32741 9.93445 10.3293C9.11508 12.3312 8.69336 14.4767 8.69336 16.6436L24.9977 16.6436H41.3021Z" fill="black"/>
<ellipse cx="22.4175" cy="14.4437" rx="1.63043" ry="1.65" fill="white"/>
<ellipse cx="24.8629" cy="14.4435" rx="1.63043" ry="1.65" fill="white"/>
<ellipse cx="22.4187" cy="14.4436" rx="0.815217" ry="0.825397" fill="black"/>
<ellipse cx="24.8621" cy="14.4436" rx="0.815217" ry="0.825397" fill="black"/>
<path d="M19.0234 17.1934C19.0234 17.1934 19.5669 19.3934 23.0995 19.3934C26.6321 19.3934 27.1756 17.1934 27.1756 17.1934" stroke="black" stroke-linecap="round"/>
</svg>
