<svg width="51" height="51" viewBox="0 0 51 51" fill="none" xmlns="http://www.w3.org/2000/svg">
<rect x="43.1074" y="6.54077" width="34.4444" height="35" rx="14.5" transform="rotate(90 43.1074 6.54077)" fill="black"/>
<path d="M0.330084 25.9853C0.330084 29.2684 0.976728 32.5193 2.23309 35.5524C3.48946 38.5856 5.33095 41.3416 7.65241 43.663C9.97388 45.9845 12.7299 47.826 15.763 49.0823C18.7961 50.3387 22.047 50.9853 25.3301 50.9853C28.6131 50.9853 31.864 50.3387 34.8972 49.0823C37.9303 47.826 40.6863 45.9845 43.0078 43.663C45.3292 41.3416 47.1707 38.5856 48.4271 35.5524C49.6834 32.5193 50.3301 29.2684 50.3301 25.9854L25.3301 25.9854L0.330084 25.9853Z" fill="black"/>
<circle cx="31.4382" cy="19.8742" r="1.66667" fill="white"/>
<circle cx="33.9382" cy="19.8742" r="1.66667" fill="white"/>
<circle cx="31.4388" cy="19.8739" r="0.833333" fill="black"/>
<circle cx="33.9368" cy="19.8739" r="0.833333" fill="black"/>
<path d="M24.2188 27.6514H32.5521" stroke="black" stroke-linecap="round"/>
</svg>
