<svg width="53" height="97" viewBox="0 0 53 97" fill="none" xmlns="http://www.w3.org/2000/svg">
<rect x="5.64062" y="90.6565" width="90.2434" height="41.8201" rx="20.9101" transform="rotate(-90 5.64062 90.6565)" fill="#1FD068"/>
<path d="M0.137461 69.7465C0.137461 73.215 0.820646 76.6496 2.14801 79.8542C3.47537 83.0587 5.42092 85.9704 7.87357 88.4231C10.3262 90.8757 13.2379 92.8213 16.4425 94.1486C19.647 95.476 23.0816 96.1592 26.5502 96.1592C30.0187 96.1592 33.4533 95.476 36.6579 94.1486C39.8624 92.8213 42.7741 90.8757 45.2268 88.4231C47.6794 85.9704 49.625 83.0587 50.9523 79.8542C52.2797 76.6496 52.9629 73.215 52.9629 69.7465L26.5502 69.7465L0.137461 69.7465Z" fill="#1FD068"/>
<circle cx="18.2934" cy="16.371" r="1.65079" fill="white"/>
<circle cx="20.7699" cy="16.371" r="1.65079" fill="white"/>
<circle cx="18.2961" cy="16.3711" r="0.825397" fill="black"/>
<circle cx="20.7707" cy="16.3711" r="0.825397" fill="black"/>
<path d="M16 21C16 21 16.4035 23.2011 19.0265 23.2011C21.6494 23.2011 22.0529 21 22.0529 21" stroke="black" stroke-linecap="round"/>
</svg>
