<svg width="54" height="36" viewBox="0 0 54 36" fill="none" xmlns="http://www.w3.org/2000/svg">
<rect x="3" y="17.7239" width="48.2204" height="15.1999" rx="7.59995" fill="black"/>
<path d="M42.8348 17.724C42.8348 15.6591 42.4281 13.6144 41.6378 11.7067C40.8476 9.79897 39.6894 8.06557 38.2293 6.60546C36.7692 5.14535 35.0358 3.98713 33.1281 3.19692C31.2203 2.40671 29.1757 2 27.1107 2C25.0458 2 23.0011 2.40671 21.0934 3.19692C19.1857 3.98713 17.4523 5.14535 15.9922 6.60546C14.5321 8.06557 13.3738 9.79898 12.5836 11.7067C11.7934 13.6144 11.3867 15.6591 11.3867 17.724L27.1107 17.724H42.8348Z" fill="black"/>
</svg>
