<svg width="64" height="121" viewBox="0 0 64 121" fill="none" xmlns="http://www.w3.org/2000/svg">
<rect x="7.32422" y="102.349" width="50.0741" height="18.1587" rx="9.07937" fill="black"/>
<path d="M7.32187 77.5872C7.32187 80.839 7.96235 84.0589 9.20675 87.0632C10.4512 90.0674 12.2751 92.7972 14.5745 95.0965C16.8738 97.3959 19.6036 99.2198 22.6078 100.464C25.6121 101.709 28.832 102.349 32.0838 102.349C35.3356 102.349 38.5555 101.709 41.5598 100.464C44.564 99.2198 47.2938 97.3959 49.5931 95.0965C51.8925 92.7972 53.7164 90.0674 54.9608 87.0632C56.2052 84.0589 56.8457 80.839 56.8457 77.5872L32.0838 77.5872L7.32187 77.5872Z" fill="black"/>
<path d="M64.0006 72.6348C64.0006 68.4437 63.1751 64.2935 61.5712 60.4214C59.9673 56.5492 57.6165 53.0309 54.6529 50.0673C51.6892 47.1037 48.1709 44.7528 44.2988 43.1489C40.4266 41.545 36.2765 40.7195 32.0853 40.7195C27.8941 40.7195 23.744 41.545 19.8718 43.1489C15.9997 44.7528 12.4813 47.1037 9.51771 50.0673C6.5541 53.0309 4.20323 56.5492 2.59933 60.4214C0.995436 64.2935 0.169922 68.4437 0.169922 72.6348L32.0853 72.6348H64.0006Z" fill="black"/>
<path d="M48.0443 77.5878C48.0443 75.4922 47.6315 73.4171 46.8296 71.4811C46.0276 69.545 44.8522 67.7858 43.3704 66.304C41.8886 64.8222 40.1294 63.6468 38.1933 62.8448C36.2572 62.0429 34.1822 61.6301 32.0866 61.6301C29.991 61.6301 27.9159 62.0429 25.9798 62.8448C24.0438 63.6468 22.2846 64.8222 20.8028 66.304C19.321 67.7858 18.1456 69.545 17.3436 71.4811C16.5417 73.4171 16.1289 75.4922 16.1289 77.5878L32.0866 77.5878H48.0443Z" fill="black"/>
<circle cx="32.0861" cy="24.7619" r="24.7619" fill="black"/>
<circle cx="41.9887" cy="17.058" r="1.65079" fill="white"/>
<circle cx="44.4652" cy="17.058" r="1.65079" fill="white"/>
<circle cx="41.9914" cy="17.0581" r="0.825397" fill="black"/>
<circle cx="44.466" cy="17.0581" r="0.825397" fill="black"/>
<path d="M39.2383 22.5608C39.2383 22.5608 39.6418 24.7619 42.2647 24.7619C44.8877 24.7619 45.2912 22.5608 45.2912 22.5608" stroke="black" stroke-linecap="round"/>
</svg>
